<?xml version="1.0" encoding="utf-8"?>
<svg version="1.1" id="OBJECTS" xmlns="http://www.w3.org/2000/svg" xmlns:xlink="http://www.w3.org/1999/xlink" x="0px" y="0px"
	 viewBox="0 0 500 500" style="enable-background:new 0 0 500 500;" xml:space="preserve">
<style type="text/css">
	.st0{fill:#F7F7F7;}
	.st1{fill:#F4F4F4;}
	.st2{fill:#BADFE5;}
	.st3{fill:#C4C4C4;}
</style>
<g>
	<rect x="240" y="367.3" class="st0" width="42" height="106.6"/>
	<g>
		<g>
			<g>
				<polygon class="st1" points="111,414.6 261.1,140 411.1,414.6 				"/>
				<path class="st2" d="M392.8,397L392.8,397c-5.3,6.2-14.9,6.2-20.3,0l0,0c-5.3-6.2-14.9-6.2-20.3,0v0c-5.3,6.2-14.9,6.2-20.3,0v0
					c-5.3-6.2-14.9-6.2-20.3,0l0,0c-5.3,6.2-14.9,6.2-20.3,0l0,0c-5.3-6.2-14.9-6.2-20.3,0v0c-5.3,6.2-14.9,6.2-20.3,0l0,0
					c-5.3-6.2-14.9-6.2-20.3,0l0,0c-5.3,6.2-14.9,6.2-20.3,0l0,0c-5.3-6.2-14.9-6.2-20.3,0l0,0c-5.3,6.2-14.9,6.2-20.3,0l0,0
					c-5.3-6.2-14.9-6.2-20.3,0l0,0c-5.3,6.2-14.9,6.2-20.3,0l0,0c-5.3-6.2-14.9-6.2-20.3,0l-4.1,4.7c-3.6,4.2-4.3,10.2-1.7,15.1
					l1.9,3.5c2.3,4.3,6.9,7.1,11.8,7.1h144.1h144.1c4.9,0,9.5-2.7,11.8-7.1c0,0,1.5-15.2-3.9-23.4
					C408.6,390.2,398.2,390.9,392.8,397z"/>
			</g>
			<g>
				<polygon class="st1" points="145.1,290.9 261.1,78.7 377,290.9 				"/>
				<path class="st2" d="M363.5,276.6l-1.2,1.4c-3.8,4.4-10.6,4.4-14.4,0l-1.2-1.4c-3.8-4.4-10.6-4.4-14.4,0l-1.2,1.4
					c-3.8,4.4-10.6,4.4-14.4,0l-1.2-1.4c-3.8-4.4-10.6-4.4-14.4,0l-1.2,1.4c-3.8,4.4-10.6,4.4-14.4,0l-1.2-1.4
					c-3.8-4.4-10.6-4.4-14.4,0l-1.2,1.4c-3.8,4.4-10.6,4.4-14.4,0l-1.2-1.4c-3.8-4.4-10.6-4.4-14.4,0l-1.2,1.4
					c-3.8,4.4-10.6,4.4-14.4,0l-1.2-1.4c-3.8-4.4-10.6-4.4-14.4,0l-1.2,1.4c-3.8,4.4-10.6,4.4-14.4,0l-1.2-1.4
					c-3.8-4.4-10.6-4.4-14.4,0l-1.2,1.4c-3.8,4.4-10.6,4.4-14.4,0l-1.2-1.4c-3.8-4.4-10.6-4.4-14.4,0l-4.1,4.8
					c-2.6,3-3.1,7.3-1.2,10.8l2,3.6c1.7,3.1,4.9,5,8.4,5h111.9h111.9c3.5,0,6.7-1.9,8.4-5c0,0,0.7-13.5-3.4-19.2
					C374.6,271.9,367.3,272.2,363.5,276.6z"/>
			</g>
			<g>
				<polygon class="st1" points="185.1,180.3 261.1,26 337,180.3 				"/>
				<path class="st2" d="M329.4,168.3l-3.3,4.2c-1.8,2.3-5.2,2.3-7,0l-3.3-4.2c-1.8-2.3-5.2-2.3-7,0l-3.3,4.2c-1.8,2.3-5.2,2.3-7,0
					l-3.3-4.2c-1.8-2.3-5.2-2.3-7,0l-3.3,4.2c-1.8,2.3-5.2,2.3-7,0l-3.3-4.2c-1.8-2.3-5.2-2.3-7,0l-3.3,4.2c-1.8,2.3-5.2,2.3-7,0
					l-3.3-4.2c-1.8-2.3-5.2-2.3-7,0l-3.3,4.2c-1.8,2.3-5.2,2.3-7,0l-3.3-4.2c-1.8-2.3-5.2-2.3-7,0l-3.3,4.2c-1.8,2.3-5.2,2.3-7,0
					l-3.3-4.2c-1.8-2.3-5.2-2.3-7,0l-3.3,4.2c-1.8,2.3-5.2,2.3-7,0l-3.3-4.2c-1.8-2.3-5.2-2.3-7,0l-5.1,6.5c-1,1.3-1.2,3.1-0.5,4.6
					l2.7,5.6c0.7,1.5,2.3,2.5,4,2.5h74.3h74.3c1.7,0,3.2-1,4-2.5c0,0,2.6-6.9-2.9-16.7C335,165.8,331.2,166.1,329.4,168.3z"/>
			</g>
		</g>
	</g>
</g>
<path class="st3" d="M100.4,98.4"/>
</svg>
