<?xml version="1.0" encoding="utf-8"?>
<svg version="1.1" id="OBJECTS" xmlns="http://www.w3.org/2000/svg" xmlns:xlink="http://www.w3.org/1999/xlink" x="0px" y="0px"
	 viewBox="0 0 500 500" style="enable-background:new 0 0 500 500;" xml:space="preserve">
<style type="text/css">
	.st0{fill:#FFFFFF;}
	.st1{fill:#BADFE5;}
</style>
<g>
	
		<rect x="236.6" y="362.2" transform="matrix(1 -2.953000e-03 2.953000e-03 1 -1.2404 0.7624)" class="st0" width="41.9" height="116.5"/>
	<g>
		<path class="st0" d="M259.2,271.9C155.7,381.9,51.5,424.2,51.5,424.2c73.7,4.8,166.4-14.7,208.1-14.9
			c41.7-0.1,134.6,18.8,208.2,13.6C467.9,423,363.4,381.3,259.2,271.9z"/>
		<path class="st1" d="M257,233.7C162.1,343.7,66.6,386,66.6,386c67.6,4.8,152.6-14.7,190.8-14.8c38.3-0.1,123.4,18.9,190.9,13.7
			C448.3,384.9,352.6,343.1,257,233.7z"/>
		<path class="st0" d="M256.9,195.6C177.3,302.4,97.2,343.5,97.2,343.5c56.7,4.7,128-14.2,160.1-14.3
			c32.1-0.1,103.5,18.4,160.2,13.4C417.5,342.5,337.2,301.9,256.9,195.6z"/>
		<path class="st1" d="M256.8,174.6c-63.3,96.7-127.1,133.9-127.1,133.9c45.1,4.3,101.9-12.8,127.5-12.9
			c25.6-0.1,82.4,16.7,127.6,12.2C384.8,307.7,320.8,270.9,256.8,174.6z"/>
		<path class="st0" d="M256.8,145.7c-54.5,92.5-109.3,128.1-109.3,128.1c38.8,4.1,87.7-12.3,109.7-12.3c22-0.1,70.9,16,109.7,11.7
			C366.8,273.2,311.8,237.9,256.8,145.7z"/>
		<path class="st1" d="M256.7,116.8c-46.6,89.6-93.5,124.1-93.5,124.1c33.2,4,75-11.8,93.8-11.9c18.8-0.1,60.7,15.5,93.9,11.3
			C350.9,240.4,303.8,206.2,256.7,116.8z"/>
		<path class="st0" d="M256.6,86.6c-37.7,86.5-75.7,119.7-75.7,119.7c26.9,3.8,60.8-11.4,76-11.4c15.2,0,49.2,15,76.1,11
			C333,205.8,294.8,172.8,256.6,86.6z"/>
		<path class="st1" d="M256.5,52.1C224.7,141.6,192.7,176,192.7,176c22.7,4,51.3-11.8,64.1-11.8c12.9,0,41.5,15.6,64.2,11.4
			C321,175.6,288.8,141.4,256.5,52.1z"/>
		<path class="st0" d="M256.5,21.3c-29,89.5-58.2,123.8-58.2,123.8c20.7,4,46.8-11.8,58.6-11.8c11.7,0,37.9,15.6,58.6,11.4
			C315.5,144.8,286,110.6,256.5,21.3z"/>
	</g>
</g>
</svg>
