<?xml version="1.0" encoding="utf-8"?>
<!-- Generator: Adobe Illustrator 21.1.0, SVG Export Plug-In . SVG Version: 6.00 Build 0)  -->
<svg version="1.1" id="Layer_1" xmlns="http://www.w3.org/2000/svg" xmlns:xlink="http://www.w3.org/1999/xlink" x="0px" y="0px"
	 viewBox="0 0 510 510" style="enable-background:new 0 0 510 510;" xml:space="preserve">
<style type="text/css">
	.st0{fill:#FFFEFF;stroke:#FFFFFF;stroke-width:7;stroke-miterlimit:10;}
	.st1{fill:#EB1F20;}
	.st2{fill:#AE1620;}
	.st3{fill:#9C0306;}
	.st4{fill:#1F2729;}
	.st5{fill:#FFDFD6;}
	.st6{fill:#FEC0AE;}
	.st7{fill:#F1D1CA;}
	.st8{fill:#EAA28E;}
	.st9{fill:#FFFFFF;}
	.st10{fill:#E6E6E8;}
	.st11{fill:none;stroke:#A2999A;stroke-width:1.74;}
	.st12{fill:#333637;}
	.st13{fill:#A2999A;}
	.st14{fill:#EC1E21;}
	.st15{fill:#FFFEFF;}
</style>
<path class="st0" d="M485,132.9c28.7-28.6,2-68.6-42.8-21.1l-15.3,20.9c-24.6,22.3-45.1,42-60.7,68.6c-3.7-17.8-11.3-35.2-24-50.6
	c14.8-6.6,17.2-25.9-1.8-35.2C289.1,18.6,186,41.2,148,95.2c-7.8,11.2-19.6,15.5-31.2,20.7c0-3.7-3.3-6.8-4.4-10
	c-2.7-7.9-5.6-14.9-13-18.7c-1.7-0.9-4.1,0.2-6.1-0.4c-3.1-1-5.7-3.4-9.1-3.4c-3.8,0-7.1,2.5-10.5,3.7c-3.4,1.2-7.1,1-9.9,2.9
	c-2.2,1.6-3.1,4.6-4.7,6.8c-1.4,2-4,3.4-5.1,5.6c-0.3,0.6-0.4,1.2-0.4,1.8c-0.4,0.4-0.7,0.9-0.9,1.3c-0.9,1.7-0.2,3.8-0.5,5.8
	c-0.4,2.5-1.7,5.1-1.7,7.7c0,3.4,1.8,6.8,2.8,9.8c0.4,1.1,0,3.5,0.5,4.6c0.8,1.9,3,3.7,4.3,5.3c-9.9-3.8-15.9,0.3-11.8,13.4
	c-33.9-22.1-67.6,12.3-11.8,46.3l33.2,14.6c2.9,6.5,7,14.1,12.1,22.1c15.1,26.6,33.6,52.4,71,73c-12.8,15.7-24.9,31.5-26.8,51.7
	c-0.1,0-0.2-0.1-0.3-0.1c-3.6,18.9-1.6,34.5,2.9,41.3c2.2,9.4,16.3,26.5,27.9,33.7c110.7,65,175,30.7,203.4,13.1
	c26.3-19.8,37.3-38,40.7-55.5c2-1.1,4-3,5.4-6.9c5.4-14.9,6.6-42.7-2.8-46.9c-0.1,0-0.1,0.1-0.2,0.1c-2.9-16.5-10.6-32-22.3-45.6
	c5.9-8,12-15.9,18.1-23.7c-5.6,7.8-11.6,15.7-18.1,23.7c31.6-35.7,66.1-70.3,75.1-115.1c7.6-6,21.1-11.5,31.1-19.4
	C501.9,145,504.2,131.1,485,132.9z M74.2,149.6c2.6,1,4.7,1.9,8.6,1.9c3.2,0,5.5-2.2,8.4-3.1c2.7-0.8,6.2-0.2,8.5-1.6
	c2.6-1.6,4.1-4.4,6.2-6.7c1.6-1.7,2.9-4.9,4.1-7.5c0.2-0.4,0.4-0.9,0.6-1.3c0.1-0.2,0.2-0.5,0.3-0.7c1.4-2.9,2.9-4.9,3.7-7.4
	c0.8-1.3,1.4-2.7,1.7-4.3l-1.5,13.6c3.7,8,33.2,2.2,49.9,0.7c-6.1,4.4-5.8,13.1,0.2,17.2c-7.3,17-19.8,32-26.2,51.5
	c-12.2-10.6-26-20.1-41.9-28.5C90.1,168,82.8,157.6,74.2,149.6z"/>
<g>
	<path class="st1" d="M378.7,293.4c24.5,28.3,31.3,65.6,14,100.9l-258.9,7.6c-22.3-42.8-3.5-68.4,17-93.5
		C112.7,285.3,406.1,256.2,378.7,293.4z"/>
	<path class="st1" d="M335.2,253.4c16.5-43,59.2-90.4,91.8-120l26.8,45.5c-5.2,30.5-27.7,62.8-75.1,115.1
		C375.7,297.2,335.2,253.4,335.2,253.4z"/>
	<path class="st1" d="M97,173.6c28.2,14.9,50,33.1,67.1,55.3c0,0,34.1,30.8,28.3,52.9c-6.5,24.5-41.7,26.6-41.7,26.6
		c-46.5-25.8-70.8-69.3-83.1-95.1L97,173.6z"/>
	<path class="st2" d="M171.6,153.6l10.3,10.9c9.1,39.1,19.9,35,54.2,41.5c57.8-9,94,8.2,101-51.7c56.6,55.9,33.1,144.2,9.5,180.2
		c1.7-12.8,0-25.2-2-37.6c-0.2,33.5-18.4,53-46,73.1c6.4-11.3,9.5-20.6,5-27.6c-5.4,13-10.4,26.2-25,34c2.3-6.2,2.3-12.5,1.6-18.7
		c-4,7.9-7,16.1-16.1,23.1c-3.9-8.6-13.8-12.8-21.3-18.7c1.4,8.5,6.5,9.5,10.4,13c-59.8-8-71.3-50.6-88.7-83.9
		c-0.8,6.6-2.3,12.4-1,21.6C107,220.6,159.8,195.7,171.6,153.6L171.6,153.6z"/>
	<path class="st2" d="M97,173.6c-21.8,64.6,26.2,103.8,53.8,134.8c-47.8-26.3-64.6-61-83.1-95.1L97,173.6z"/>
	<path class="st2" d="M427,132.8l26.8,45.5c-9,44.8-43.5,79.4-75.1,115.1C425.1,236.4,449.6,183.4,427,132.8L427,132.8z"/>
	<path class="st3" d="M126.6,401.3l273.2-18.5c-1,20.5-10.7,41.8-41.9,65.3c-28.4,17.6-92.7,51.9-203.4-13.1
		C142.9,427.8,128.7,410.7,126.6,401.3L126.6,401.3z"/>
	<path class="st4" d="M442.3,111.9c44.8-47.5,71.6-7.4,42.8,21.1c19.2-1.8,16.9,12.1-0.2,25.8c-10,8-23.5,13.4-31.1,19.4L427,132.8
		L442.3,111.9z"/>
	<path class="st4" d="M34.4,198.6c-55.7-34-22.1-68.4,11.8-46.3c-5.8-18.4,8.3-19,25.3-5.1c9.9,8.1,18,20.2,25.5,26.3l-29.3,39.7
		L34.4,198.6z"/>
	<path class="st4" d="M123.6,360c85.4,27.2,174.5,46.3,277.6-21.2c9.4,4.1,8.2,31.9,2.8,46.9c-3,8.3-8.5,7.7-11.3,8.6
		c-93.2,35.8-179.9,23.1-266.1,7C122.1,394.5,120,378.9,123.6,360L123.6,360z"/>
	<path class="st5" d="M336.9,171.9c0,47.6-36.2,86.3-80.8,86.3c-44.6,0-80.8-38.6-80.8-86.3s36.1-86.3,80.8-86.3
		C300.8,85.6,336.9,124.3,336.9,171.9L336.9,171.9z"/>
	<path class="st6" d="M313.4,180.7c0,8.3-7.8,15.1-17.4,15.1s-17.3-6.8-17.3-15.1c0-8.3,7.7-15.1,17.3-15.1S313.4,172.5,313.4,180.7
		L313.4,180.7z"/>
	<path class="st6" d="M240,186c0,8.3-7.7,15.1-17.3,15.1s-17.4-6.8-17.4-15.1c0-8.3,7.8-15.1,17.4-15.1S240,177.6,240,186L240,186z"
		/>
	<path class="st7" d="M181.4,133.2c4.8-7.7-17.5-2.3-8.7-8.6c3.8-2.8,14.3-3.3,19.4-6.1c6.3-3.4,15.5-11.7,24.1-13.6
		c7.1-1.6,18.7-0.2,27.1-0.5c7-0.2,19.6-4,27.2-2.8c7.3,1.1,13.6,8.6,21.7,10.2c13.2,2.7,28.1,4.2,42.6,17.8c12.3,3,4.5,28-7.6,37.4
		c-4.8-11.5-21.1-15.5-30.4-21.3c-2.5-1.6,8.2-5.8,5.5-7c-6.7-3-21.1,2.6-28.7,1.6c-5.6-0.8-3-7-8.6-7.1c-5.6-0.1-18,7.7-23.9,8.3
		c-6.2,0.6-5-8.9-10.8-8c-9.5,1.5-15.8,9.5-24.4,13.6c-2.6,1.2-8.5-2.7-11-1.6c-12.5,5.5-20.2,14.9-21.5,20.7
		C155.6,170.7,172.2,139.9,181.4,133.2L181.4,133.2z"/>
	<path class="st8" d="M304.1,172.4c0,0.7-0.6,1.3-1.3,1.3s-1.3-0.5-1.3-1.3c0-0.7,0.5-1.3,1.3-1.3S304.1,171.7,304.1,172.4
		L304.1,172.4z"/>
	<path class="st8" d="M291.5,174.1c0,0.7-0.5,1.3-1.3,1.3c-0.7,0-1.3-0.6-1.3-1.3c0-0.7,0.6-1.3,1.3-1.3
		C291,172.9,291.5,173.4,291.5,174.1L291.5,174.1z"/>
	<path class="st8" d="M300.6,176.5c0,0.7-0.6,1.3-1.3,1.3c-0.7,0-1.3-0.6-1.3-1.3c0-0.7,0.5-1.3,1.3-1.3
		C300,175.2,300.6,175.8,300.6,176.5L300.6,176.5z"/>
	<path class="st8" d="M229.6,175.9c0,0.7-0.5,1.3-1.3,1.3s-1.3-0.6-1.3-1.3c0-0.7,0.6-1.3,1.3-1.3S229.6,175.2,229.6,175.9
		L229.6,175.9z"/>
	<path class="st8" d="M217.1,177.7c0,0.7-0.6,1.3-1.3,1.3c-0.7,0-1.3-0.5-1.3-1.3c0-0.7,0.5-1.3,1.3-1.3
		C216.5,176.4,217.1,177,217.1,177.7L217.1,177.7z"/>
	<path class="st8" d="M226.1,180.1c0,0.7-0.6,1.3-1.3,1.3c-0.7,0-1.3-0.6-1.3-1.3c0-0.7,0.6-1.3,1.3-1.3
		C225.5,178.8,226.1,179.4,226.1,180.1L226.1,180.1z"/>
	<path class="st9" d="M168.5,141.3l10.4,10.9c9.1,39.1,19.9,35,54.2,41.6c57.8-9,94,8.2,101.1-51.7c56.6,55.8,33.1,144.1,9.5,180.2
		c1.7-12.8,0-25.2-2-37.6c-0.2,33.5-18.4,53-46.1,73.1c6.5-11.3,9.5-20.6,5.1-27.6c-5.4,13-10.4,26.2-25,33.9
		c2.3-6.2,2.3-12.5,1.6-18.7c-4,8-7,16.1-16.1,23.2c-3.9-8.7-13.8-12.8-21.3-18.8c1.4,8.5,6.5,9.5,10.4,13.1
		c-59.7-8.1-71.3-50.6-88.6-83.9c-0.8,6.5-2.4,12.3-1,21.6C104,208.2,156.8,183.4,168.5,141.3L168.5,141.3z"/>
	<path class="st10" d="M255.5,193.7c65.2-36.4,65.3,13.7,108.7,24c-13.6,31.7-77.5,41.3-105.7,15.3
		c-30.2,27.4-110.6,33.5-118.9-22.3c7.9-1.1,2.6,7.1,73.3-29.6C225.9,176.8,240.8,180.7,255.5,193.7L255.5,193.7z"/>
	<path class="st9" d="M255.5,192.6c14.6-13,45.4-23.6,74.6,8.6c-5.6-2.3-11.2-2.8-16.7-3.7c14.5,0.9,15.7,16.7,34.9,18.2
		c-5.1,2-10.4,2.4-15.8,1.4c6.6,7.3,23.1,4.2,22.4,4.3c-3.5,2.8-9.7,9.1-24.1,8.1c7.3,0.7,14.5,1.3,21.7,0.8
		c-40.3,18.1-65.8,18.8-93.9-3.7c-36.8,29.2-93.8,21.8-98.7,12.6c5.5-1.6,11-2.8,15.5-8c-10.6,1.2-20-0.2-27.2-6.7
		c6.1-2,12.5-0.4,18.1-7c-7.8,2.8-15.1,2.3-22-2.2c11.5-5.2,21.8-7.5,30.7-12.1c16.9-8.8,26.4-18.2,38.1-21.6
		C225.9,177.9,240.8,181.3,255.5,192.6L255.5,192.6z"/>
	<path class="st11" d="M246,185.2c0,10.1-8.2,18.3-18.3,18.3c-10.1,0-18.3-8.2-18.3-18.3c0-10.1,8.2-18.3,18.3-18.3
		C237.8,166.9,246,175.1,246,185.2L246,185.2z"/>
	<path class="st11" d="M298.6,183.9c0,10.1-8.2,18.3-18.3,18.3c-10.1,0-18.3-8.2-18.3-18.3c0-10.1,8.2-18.3,18.3-18.3
		C290.4,165.6,298.6,173.8,298.6,183.9L298.6,183.9z"/>
	<path class="st12" d="M234.8,166.8c-6.3-5.3-12.8-6.1-20.2,0C214.3,157.3,233.8,154.5,234.8,166.8L234.8,166.8z"/>
	<path class="st12" d="M305,161.9c-6.2-5.3-12.8-6.1-20.1,0C284.4,152.4,304,149.6,305,161.9L305,161.9z"/>
	<path class="st13" d="M244.7,178c5.6-5.3,11.5-6.8,17.5,0l-0.2,2.1c-5.2-6.1-10.7-5.9-17-0.1L244.7,178z"/>
	<path class="st14" d="M116.9,116c11.6-5.2,23.4-9.5,31.2-20.7c38-54,141.1-76.6,192.3,20.3l-93.5-6.5l-82,24.4
		c-16.6,1.5-46.2,7.3-49.9-0.7L116.9,116z"/>
	<path class="st10" d="M115.5,119.2c0,5.1-2.3,7.3-4.4,11.6c-1.4,2.8-2.9,7.3-5,9.5c-2.1,2.3-3.6,5-6.2,6.7
		c-2.3,1.4-5.8,0.8-8.5,1.6c-2.9,0.9-5.2,3.1-8.4,3.1c-5,0-7.2-1.5-11.1-2.8c-2.5-0.9-7.1-1-9.1-2.9c-1.6-1.4-3.1-4.8-4.4-6.7
		c-1.3-1.7-3.7-3.6-4.6-5.6c-0.5-1.1-0.1-3.5-0.5-4.6c-1-3.1-2.8-6.5-2.8-9.8c0-2.6,1.3-5.2,1.7-7.7c0.3-2-0.4-4.1,0.5-5.8
		c1.1-2.2,3.6-3.6,5.1-5.6c1.6-2.2,2.5-5.2,4.7-6.7c2.8-2,6.5-1.7,9.9-2.9c3.4-1.2,6.7-3.7,10.6-3.7c3.4,0,6,2.4,9.1,3.4
		c1.9,0.6,4.4-0.5,6.1,0.4c7.3,3.8,10.3,10.8,12.9,18.7C112.2,112.4,115.5,115.5,115.5,119.2L115.5,119.2z"/>
	<path class="st15" d="M116.9,116c0,5.2-2.3,7.3-4.4,11.6c-1.3,2.8-2.9,7.3-4.9,9.5c-2.1,2.3-3.6,5-6.3,6.7
		c-2.3,1.4-5.8,0.8-8.5,1.6c-2.9,0.9-5.2,3.1-8.4,3.1c-5,0-7.3-1.4-11.2-2.8c-2.5-0.8-7-1-9.1-2.9c-1.6-1.4-3.1-4.8-4.5-6.7
		c-1.3-1.7-3.7-3.6-4.6-5.6c-0.5-1.1-0.1-3.5-0.5-4.6c-1-3.1-2.8-6.5-2.8-9.8c0-2.6,1.4-5.2,1.8-7.7c0.3-2-0.4-4.1,0.5-5.8
		c1.1-2.2,3.7-3.6,5.1-5.6c1.6-2.2,2.6-5.2,4.7-6.8c2.8-2,6.5-1.7,9.9-2.9c3.4-1.2,6.7-3.7,10.5-3.7c3.4,0,6.1,2.4,9.1,3.4
		c1.9,0.5,4.3-0.5,6.1,0.4c7.3,3.8,10.3,10.8,13,18.7C113.6,109.2,116.9,112.3,116.9,116L116.9,116z"/>
	<path class="st15" d="M165,133.5c4.8-7.7,4.6-16.6,13.3-22.9c3.9-2.8,14.3-3.3,19.5-6.1c6.2-3.4,15.5-11.7,24-13.6
		c7.1-1.6,18.7-0.2,27.1-0.5c7-0.2,19.7-4,27.3-2.8c7.3,1.2,13.6,8.6,21.7,10.2c13.2,2.7,28.1,4.2,42.6,17.8
		c22.6,11,15.1,36.2-7.7,37.4c-4.8-11.5-21.1-15.5-30.3-21.3c-2.5-1.6,8.2-5.8,5.5-7c-6.7-3-21.1,2.6-28.8,1.6
		c-5.6-0.8-2.9-7-8.6-7.1c-5.6-0.2-18,7.7-23.9,8.3c-6.2,0.6-5-8.9-10.8-8c-9.6,1.5-15.8,9.5-24.4,13.6c-2.6,1.2-8.5-2.7-11-1.6
		c-12.5,5.4-20.2,14.8-21.5,20.6C161.3,156.6,155.7,140.2,165,133.5L165,133.5z"/>
</g>
</svg>
